<svg xmlns="http://www.w3.org/2000/svg" width="16" height="16" viewBox="0 0 16 16" fill="none">
<path d="M3.88281 2.42179L8.00014 6.53912L12.0961 2.44312C12.1866 2.34682 12.2956 2.26978 12.4166 2.21663C12.5376 2.16347 12.668 2.1353 12.8001 2.13379C13.083 2.13379 13.3543 2.24617 13.5544 2.44621C13.7544 2.64625 13.8668 2.91756 13.8668 3.20046C13.8693 3.33123 13.845 3.46114 13.7955 3.5822C13.746 3.70326 13.6722 3.81292 13.5788 3.90446L9.42947 8.00046L13.5788 12.1498C13.7546 12.3218 13.8577 12.5547 13.8668 12.8005C13.8668 13.0834 13.7544 13.3547 13.5544 13.5547C13.3543 13.7547 13.083 13.8671 12.8001 13.8671C12.6642 13.8728 12.5286 13.8501 12.4019 13.8005C12.2752 13.7509 12.1602 13.6755 12.0641 13.5791L8.00014 9.46179L3.89347 13.5685C3.80335 13.6615 3.69568 13.7359 3.57668 13.7871C3.45768 13.8384 3.3297 13.8656 3.20014 13.8671C2.91724 13.8671 2.64593 13.7547 2.44589 13.5547C2.24585 13.3547 2.13347 13.0834 2.13347 12.8005C2.13099 12.6697 2.15525 12.5398 2.20478 12.4187C2.2543 12.2977 2.32804 12.188 2.42147 12.0965L6.57081 8.00046L2.42147 3.85112C2.24567 3.67913 2.14258 3.44623 2.13347 3.20046C2.13347 2.91756 2.24585 2.64625 2.44589 2.44621C2.64593 2.24617 2.91724 2.13379 3.20014 2.13379C3.45614 2.13699 3.70147 2.24046 3.88281 2.42179Z" fill="#212121"/>
</svg>