<svg width="114" height="75" viewBox="0 0 114 75" fill="none" xmlns="http://www.w3.org/2000/svg">
<g id="group">
<path id="Rectangle 41" d="M1 5.5C1 3.29086 2.79086 1.5 5 1.5H109C111.209 1.5 113 3.29086 113 5.5V69.5C113 71.7091 111.209 73.5 109 73.5H5C2.79086 73.5 1 71.7091 1 69.5V5.5Z" stroke="#757575" stroke-width="2"/>
<rect id="vector" x="11" y="49.5" width="20" height="16" rx="2" stroke="#757575" stroke-width="2"/>
<rect id="vector_2" x="35" y="49.5" width="20" height="16" rx="2" stroke="#757575" stroke-width="2"/>
<rect id="vector_3" x="59" y="49.5" width="20" height="16" rx="2" stroke="#757575" stroke-width="2"/>
<rect id="vector_4" x="83" y="49.5" width="20" height="16" rx="2" stroke="#757575" stroke-width="2"/>
<rect id="vector_5" x="11" y="29.5" width="20" height="16" rx="2" stroke="#757575" stroke-width="2"/>
<rect id="vector_6" x="35" y="29.5" width="20" height="16" rx="2" stroke="#757575" stroke-width="2"/>
<rect id="vector_7" x="59" y="29.5" width="20" height="16" rx="2" stroke="#757575" stroke-width="2"/>
<rect id="vector_8" x="83" y="29.5" width="20" height="16" rx="2" stroke="#757575" stroke-width="2"/>
<rect id="vector_9" x="11" y="9.5" width="20" height="16" rx="2" stroke="#757575" stroke-width="2"/>
<rect id="vector_10" x="35" y="9.5" width="20" height="16" rx="2" stroke="#757575" stroke-width="2"/>
<rect id="vector_11" x="59" y="9.5" width="20" height="16" rx="2" stroke="#757575" stroke-width="2"/>
<rect id="vector_12" x="83" y="9.5" width="20" height="16" rx="2" stroke="#757575" stroke-width="2"/>
</g>
</svg>
