<svg width="61" height="57" viewBox="0 0 61 57" fill="none" xmlns="http://www.w3.org/2000/svg">
<path d="M24.6357 41.1082L26.4369 38.5866C28.9586 40.748 32.5609 42.1889 35.0825 36.0649L36.8837 37.1456C35.0825 47.2322 27.1574 44.3503 24.6357 41.1082Z" fill="#151515" stroke="#151515" stroke-width="0.720469"/>
<path fill-rule="evenodd" clip-rule="evenodd" d="M9.02277 14.4509C13.596 7.50668 21.4621 2.92338 30.3988 2.92338C39.3354 2.92338 47.2015 7.50668 51.7747 14.4509H55.1533C50.2589 5.84538 41.0066 0.0415039 30.3988 0.0415039C19.7909 0.0415039 10.5386 5.84538 5.64416 14.4509H9.02277ZM5.44606 34.1403C4.10562 33.1096 2.94126 31.8613 2.00586 30.4481C3.00698 45.2567 15.3363 56.9586 30.3988 56.9586C45.0789 56.9586 57.163 45.8431 58.6937 31.5695C57.704 32.8049 56.5262 33.883 55.2037 34.7605C52.4112 45.8596 42.3646 54.0767 30.3988 54.0767C18.2111 54.0767 8.01453 45.5522 5.44606 34.1403Z" fill="#151515"/>
<path fill-rule="evenodd" clip-rule="evenodd" d="M47.9925 18.7737L43.2087 32.8221C41.3291 32.4252 39.5532 31.6855 37.9639 30.66L42.2287 18.7737H47.9925ZM54.4767 18.7737L49.6623 32.2292C48.7709 32.8228 47.2128 33.2022 46.02 33.1165L50.8744 18.7737H54.4767ZM18.4534 18.7738L13.6697 32.8222C11.79 32.4254 10.0141 31.6856 8.4248 30.6602L12.6897 18.7738H18.4534ZM24.9376 18.7738L20.1233 32.2293C19.2318 32.823 17.6738 33.2023 16.4809 33.1167L21.3353 18.7738H24.9376Z" fill="url(#paint0_linear_211_1304)"/>
<path fill-rule="evenodd" clip-rule="evenodd" d="M0.519975 17.5694C0.373542 16.6911 1.05083 15.8916 1.9413 15.8916H59.0587C59.9492 15.8916 60.6265 16.6911 60.48 17.5694L59.4575 23.7045C58.0038 32.4272 49.6047 38.2042 40.9391 36.4417C37.535 35.7494 34.642 33.5226 33.1014 30.4091L30.5 25.1512L27.8986 30.4091C26.358 33.5226 23.465 35.7494 20.0609 36.4417C11.3953 38.2042 2.99624 32.4272 1.54246 23.7045L0.519975 17.5694ZM43.2087 32.822L47.9925 18.7736H42.2287L37.9639 30.66C39.5532 31.6855 41.3291 32.4252 43.2087 32.822ZM49.6623 32.2291L54.4767 18.7736H50.8743L46.02 33.1165C47.2128 33.2021 48.7709 32.8228 49.6623 32.2291ZM13.6696 32.8222L18.4534 18.7737H12.6896L8.42479 30.6601C10.0141 31.6856 11.79 32.4253 13.6696 32.8222ZM20.1233 32.2293L24.9376 18.7737H21.3353L16.4809 33.1166C17.6737 33.2023 19.2318 32.8229 20.1233 32.2293Z" fill="#151515"/>
<defs>
<linearGradient id="paint0_linear_211_1304" x1="32.9207" y1="20.9351" x2="31.4507" y2="33.1287" gradientUnits="userSpaceOnUse">
<stop stop-color="#FBFBFB" stop-opacity="0"/>
<stop offset="1" stop-color="#FBFBFB" stop-opacity="0.76"/>
</linearGradient>
</defs>
</svg>
